<svg xmlns="http://www.w3.org/2000/svg" width="320" height="320" fill="none" viewBox="0 0 320 320"><g clip-path="url(#a)"><path fill="#000" fill-rule="evenodd" d="M385 0H-65v320h450V0ZM167.2 155.7h-14.4v8.4h14.4v-8.4Z" clip-rule="evenodd"/><path fill="#fff" d="M150.03 154.72v10.36c0 .23-.2.42-.42.42h-2.7a.42.42 0 0 1-.4-.42v-10.36c0-.23.18-.42.4-.42h2.7c.23 0 .42.19.42.42Zm-4.21 10.3-3.13-5.37 2.97-4.86c.14-.2 0-.49-.26-.49h-3.26c-.1 0-.2.05-.26.14l-2.31 3.94h-1.35v-3.66a.41.41 0 0 0-.41-.42h-2.7a.42.42 0 0 0-.41.42v10.36c0 .23.19.42.42.42h2.69c.23 0 .41-.19.41-.42v-3.65h1.64l2.3 3.92c.05.1.16.15.26.15h3.14c.24 0 .39-.27.26-.47v-.01Zm35.26.48c.23 0 .42-.19.42-.42v-10.36a.42.42 0 0 0-.42-.42h-2.57a.42.42 0 0 0-.42.42v5.3l-4.71-5.72h-2.99a.42.42 0 0 0-.41.42v10.36c0 .24.18.42.41.42h2.59a.4.4 0 0 0 .41-.42v-5.3l4.67 5.72h3.02Zm-12.18-10.74v10.28c0 .26-.2.46-.46.46h-16.88a.46.46 0 0 1-.46-.46v-10.28c0-.25.2-.46.46-.46h16.88c.25 0 .46.2.46.46Zm-3.5 2.52c0-.1-.09-.16-.18-.15-1.82.37-8.28.43-10.44 0-.1-.02-.18.05-.18.15v5.08c0 .1.08.16.17.15 1.8-.27 8.62-.23 10.46 0 .09.01.17-.05.17-.14v-5.1.01Z"/></g><defs><clipPath id="a"><path fill="#fff" d="M0 0h320v320H0z"/></clipPath></defs></svg>